<svg xmlns="http://www.w3.org/2000/svg" viewBox="0 0 1600 1000" width="1600" height="1000" preserveAspectRatio="xMidYMid slice">
  <defs><linearGradient id="c" x1="0" y1="0" x2="1" y2="1">
    <stop offset="0" stop-color="#2a3a44"/><stop offset="100%" stop-color="#0e161b"/>
  </linearGradient></defs>
  <rect width="1600" height="1000" fill="url(#c)"/>
  <line x1="160" y1="0" x2="160" y2="1000" stroke="#9fc0d0" stroke-width="1" opacity="0.10"/><line x1="320" y1="0" x2="320" y2="1000" stroke="#9fc0d0" stroke-width="1" opacity="0.10"/><line x1="480" y1="0" x2="480" y2="1000" stroke="#9fc0d0" stroke-width="1" opacity="0.10"/><line x1="640" y1="0" x2="640" y2="1000" stroke="#9fc0d0" stroke-width="1" opacity="0.10"/><line x1="800" y1="0" x2="800" y2="1000" stroke="#9fc0d0" stroke-width="1" opacity="0.10"/><line x1="960" y1="0" x2="960" y2="1000" stroke="#9fc0d0" stroke-width="1" opacity="0.10"/><line x1="1120" y1="0" x2="1120" y2="1000" stroke="#9fc0d0" stroke-width="1" opacity="0.10"/><line x1="1280" y1="0" x2="1280" y2="1000" stroke="#9fc0d0" stroke-width="1" opacity="0.10"/><line x1="1440" y1="0" x2="1440" y2="1000" stroke="#9fc0d0" stroke-width="1" opacity="0.10"/><line x1="0" y1="150" x2="1600" y2="150" stroke="#9fc0d0" stroke-width="1" opacity="0.10"/><line x1="0" y1="300" x2="1600" y2="300" stroke="#9fc0d0" stroke-width="1" opacity="0.10"/><line x1="0" y1="450" x2="1600" y2="450" stroke="#9fc0d0" stroke-width="1" opacity="0.10"/><line x1="0" y1="600" x2="1600" y2="600" stroke="#9fc0d0" stroke-width="1" opacity="0.10"/><line x1="0" y1="750" x2="1600" y2="750" stroke="#9fc0d0" stroke-width="1" opacity="0.10"/><line x1="0" y1="900" x2="1600" y2="900" stroke="#9fc0d0" stroke-width="1" opacity="0.10"/>
  <rect x="320" y="300" width="320" height="150" rx="10" fill="#c6a582" opacity="0.22"/>
  <rect x="640" y="450" width="320" height="150" rx="10" fill="#8fb0c4" opacity="0.16"/>
  <text x="50%" y="56%" fill="#eaf1f5" font-family="Georgia, serif" font-size="140" font-weight="700" text-anchor="middle" opacity="0.10">시간표</text>
</svg>